<?xml version="1.0" encoding="utf-8"?>
<!-- Generator: Adobe Illustrator 22.0.0, SVG Export Plug-In . SVG Version: 6.00 Build 0)  -->
<svg version="1.1" id="Capa_1" xmlns="http://www.w3.org/2000/svg" xmlns:xlink="http://www.w3.org/1999/xlink" x="0px" y="0px"
	 viewBox="0 0 581.1 581.1" style="enable-background:new 0 0 581.1 581.1;" xml:space="preserve">
<style type="text/css">
	.st0{fill:#212121;}
</style>
<path class="st0" d="M574,290.8C573.9,447.6,446.9,574.3,289.8,574C133.7,573.7,9.8,448,7.1,295.9C4.3,135.9,133.2,7,290.6,7.1
	C447.3,7.2,574.2,134.1,574,290.8z M318.1,473.5c0-61.2,0-121.9,0-183.1c17.1,0,33.8,0,50.8,0c1.9-20.5,3.7-40.7,5.6-61.4
	c-19.1,0-37.5,0-55.7,0c0-15.1-0.5-29.9,0.2-44.6c0.3-7,5-10.1,12.4-10.4c6.9-0.2,13.8-0.2,20.6-0.2c7.4,0,14.7,0,22.1,0
	c0-21.5,0-42.4,0-63.6c-18.1,0-35.8-0.3-53.5,0.1c-8.5,0.2-17.1,1-25.4,2.6c-14.4,2.8-27.3,8.8-36.8,20.7
	c-9.7,12.1-12.9,26.5-13.4,41.5c-0.4,12.1-0.1,24.2-0.1,36.4c0,5.7,0,11.4,0,17.5c-12.9,0-25.3,0-37.9,0c0,20.9,0,41.3,0,62.2
	c12.7,0,25.1,0,37.9,0c0,61,0,121.5,0,182.2C269.3,473.5,293.3,473.5,318.1,473.5z"/>
</svg>
