<?xml version="1.0" encoding="utf-8"?>
<!-- Generator: Adobe Illustrator 22.0.0, SVG Export Plug-In . SVG Version: 6.00 Build 0)  -->
<svg version="1.1" id="Capa_1" xmlns="http://www.w3.org/2000/svg" xmlns:xlink="http://www.w3.org/1999/xlink" x="0px" y="0px"
	 viewBox="0 0 581.1 581.1" style="enable-background:new 0 0 581.1 581.1;" xml:space="preserve">
<style type="text/css">
	.st0{display:none;}
	.st1{fill:#212121;}
</style>
<path class="st0" d="M605.2-18.3c-23,0-46.1,0-69.1,0c-4.1-1-8.2-2.4-12.4-2.9C372.6-41,249.4-150.9,213-298.9
	c-4.3-17.6-7.2-35.6-10.8-53.4c0-23,0-46.1,0-69.1c1-4.2,2.3-8.3,2.9-12.5C232.7-636.2,413-776.3,615.5-752.6
	C790.6-732.1,930.8-583,938.8-408.8c8.4,183.4-112.9,344-288.6,381.8C635.3-23.8,620.2-21.2,605.2-18.3z M728.7-502.5
	c10.4-14.5,19.5-27.1,28.6-39.8c-1.1-0.9-2.1-1.8-3.2-2.7c-11.9,4.4-23.6,10-35.9,12.9c-5.7,1.3-14.3-0.5-18.8-4.2
	C649.8-577.7,579-552.7,567.6-489c-2.1,11.5-1.5,23.4-2.3,36.1c-32.9-1.9-64.1-10.1-91.1-27.9c-26.8-17.7-51-39.3-76.7-59.5
	c-17.4,40-8.8,76.8,21.1,111.4c-9.5-2.8-18.9-5.6-30.2-8.9c2.1,41.3,22.1,68.5,58.9,86.3c-9.5,0.5-19.1,1-34.2,1.9
	c12.5,15.7,20.7,30.2,32.8,40c12,9.7,27.9,14.5,42.5,21.6c-31.3,25.1-68.2,34.9-112.4,33.6c6.4,4.5,9.2,6.8,12.3,8.6
	c77.7,45.6,181.7,37.5,250.8-20.6C697.9-316,726-380.8,728.6-457c0.3-10,3.1-16.6,10.6-23.2c10-8.7,18.3-19.4,27.3-29.3
	c-0.7-0.7-1.5-1.4-2.2-2.1C752.7-508.7,741.3-505.8,728.7-502.5z"/>
<path class="st1" d="M290.6,7.1C134,7.1,7.1,134,7.1,290.6S134,574,290.6,574S574,447.1,574,290.6S447.1,7.1,290.6,7.1z
	 M419.2,218.8c-5.8,5.1-7.9,10.1-8.2,17.7c-2,58.4-23.5,108.1-68.5,146c-52.9,44.6-132.6,50.7-192.2,15.8c-2.4-1.4-4.5-3.2-9.4-6.6
	c33.9,1,62.2-6.5,86.2-25.7c-11.2-5.5-23.4-9.2-32.6-16.6c-9.3-7.5-15.6-18.6-25.1-30.6c11.6-0.6,18.9-1,26.2-1.4
	c-28.2-13.6-43.5-34.5-45.1-66.1c8.6,2.5,15.9,4.7,23.1,6.8c-22.9-26.5-29.5-54.7-16.2-85.3c19.7,15.4,38.2,32,58.8,45.6
	c20.7,13.7,44.7,19.9,69.8,21.4c0.6-9.7,0.2-18.9,1.7-27.6c8.7-48.8,63-67.9,101.1-36.2c3.4,2.9,10,4.3,14.4,3.2
	c9.4-2.2,18.4-6.5,27.5-9.9c0.8,0.7,1.6,1.4,2.4,2.1c-7,9.7-14,19.4-21.9,30.5c9.7-2.5,18.4-4.8,27.2-7c0.6,0.5,1.1,1.1,1.7,1.6
	C433.2,203.9,426.9,212.1,419.2,218.8z"/>
</svg>
